<svg xmlns="http://www.w3.org/2000/svg" width="999.989" height="999.989" viewBox="0 0 1151 1151">
  <defs>
    <style>
      .cls-1 {
        fill-rule: evenodd;
      }
    </style>
  </defs>
  <path class="cls-1" d="M0,0H1151V1151H0V0ZM13,13H1138V1138H13V13Z"/>
  <path id="DOKI" class="cls-1" d="M105.253,1047.39h14.112q74.526,0,119.738-48.51t45.2-116.647q0-68.136-45.425-116.867T119.365,716.635H105.253V1047.39ZM228.519,774.848q41.232,44.982,41.235,107.385T228.519,989.178q-41.243,44.553-105.625,44.542h-3.529V729.865h3.529Q187.28,729.865,228.519,774.848ZM511.825,1053.12h6.616q69.234,0,119.076-51.37t49.836-120.84q0-69.459-50.277-119.734T515.795,710.9q-71.013,0-121.723,50.5T343.355,880.91q0,69.026,50.056,120.62t118.414,51.59h0Zm114.666-59.532q-46.306,46.743-111.137,46.742T404.216,993.588q-46.308-46.74-46.308-111.8t46.308-111.575q46.306-46.522,111.358-46.526t111.138,46.526q46.08,46.533,46.087,111.575T626.491,993.588Zm135.392,53.8h14.554V863.49l176.409,183.9h19.4L782.17,848.5,933.441,716.635H915.8L776,837.912V716.635H761.883V1047.39Zm271.537,0h14.55V716.635h-14.55V1047.39Z"/>
  <path id="design_by" data-name="design by" class="cls-1" d="M171.875,535.575a35.941,35.941,0,0,1-5.641,11.786,26.562,26.562,0,0,1-9.261,7.83,27.158,27.158,0,0,1-12.629,2.862,30,30,0,0,1-11.787-2.273,26.928,26.928,0,0,1-9.43-6.651,31.011,31.011,0,0,1-6.314-10.692,42.881,42.881,0,0,1-2.274-14.565,56.837,56.837,0,0,1,1.348-15.407,36.716,36.716,0,0,1,5.388-12.544,26.884,26.884,0,0,1,9.43-8.5,28.136,28.136,0,0,1,13.639-3.115,25.716,25.716,0,0,1,12.376,2.946,28.584,28.584,0,0,1,9.261,7.914,36.425,36.425,0,0,1,5.81,11.618,48.129,48.129,0,0,1,2.02,14.06A53.821,53.821,0,0,1,171.875,535.575Zm1.936-44.032a31.3,31.3,0,0,0-13.386-12.208,40.242,40.242,0,0,0-17.765-4.125A37.09,37.09,0,0,0,125.4,479a35.439,35.439,0,0,0-12.123,10.1,43.406,43.406,0,0,0-7.157,14.734,64.591,64.591,0,0,0-2.357,17.511,71.348,71.348,0,0,0,2.189,18.017,39.421,39.421,0,0,0,6.988,14.565,33.52,33.52,0,0,0,12.208,9.682q7.407,3.535,18.017,3.536a33.048,33.048,0,0,0,8.588-1.179,40.662,40.662,0,0,0,8.5-3.367,34.229,34.229,0,0,0,7.578-5.473,27.43,27.43,0,0,0,5.641-7.661h0.336v15.323h10.1V443.554h-10.1v47.989Zm67.859,23.573a45.188,45.188,0,0,1,2.862-11.786,33.793,33.793,0,0,1,5.81-9.766,27.279,27.279,0,0,1,8.756-6.736,26.582,26.582,0,0,1,11.871-2.525,27.939,27.939,0,0,1,11.955,2.441,24.892,24.892,0,0,1,8.672,6.567,28.165,28.165,0,0,1,5.22,9.766,40.037,40.037,0,0,1,1.768,12.039H241.67Zm67.691,8.419q0.166-23.571-10.1-35.949T270.969,475.21a37.883,37.883,0,0,0-16.839,3.62,36.766,36.766,0,0,0-12.544,9.935,45.851,45.851,0,0,0-7.915,14.733,57.156,57.156,0,0,0-2.778,18.017,65.549,65.549,0,0,0,2.358,17.932,40.787,40.787,0,0,0,7.24,14.481,33.951,33.951,0,0,0,12.461,9.682,42.28,42.28,0,0,0,18.017,3.536,43.694,43.694,0,0,0,14.481-2.189,32.708,32.708,0,0,0,10.777-6.146,35.543,35.543,0,0,0,7.577-9.261,54.477,54.477,0,0,0,4.884-11.534H297.406q-2.361,9.6-9.43,14.818a27.844,27.844,0,0,1-17.007,5.219,28.246,28.246,0,0,1-12.8-2.778A26.456,26.456,0,0,1,249,547.866a32.269,32.269,0,0,1-5.473-10.944,47.256,47.256,0,0,1-1.852-13.387h67.691Zm41.423,13.976a33.158,33.158,0,0,0,2.694,11.618,29.092,29.092,0,0,0,6.567,9.43,29.785,29.785,0,0,0,10.188,6.314,38.441,38.441,0,0,0,13.723,2.273,59.4,59.4,0,0,0,14.229-1.6,34.465,34.465,0,0,0,11.2-4.8,23.468,23.468,0,0,0,7.409-8,22.159,22.159,0,0,0,2.694-11.028q0-8.418-4.126-13.134a29.532,29.532,0,0,0-10.355-7.493,66.418,66.418,0,0,0-13.471-4.294q-7.242-1.515-13.471-3.452a33.517,33.517,0,0,1-10.356-5.051q-4.128-3.114-4.125-9.008a13.34,13.34,0,0,1,5.051-10.861q5.052-4.124,14.65-4.125t15.912,4.125q6.315,4.128,7.662,14.228h10.271q-1.854-14.814-10.692-21.132t-22.985-6.314q-14.649,0-22.648,6.988a22.732,22.732,0,0,0-8,17.932q0,8.588,4.125,13.3a26.963,26.963,0,0,0,10.356,7.24,65.785,65.785,0,0,0,13.471,3.788,133.783,133.783,0,0,1,13.471,3.031,31.207,31.207,0,0,1,10.356,4.883q4.124,3.118,4.125,9.514a14.075,14.075,0,0,1-1.347,6.062,15.629,15.629,0,0,1-3.957,5.135,19.27,19.27,0,0,1-6.651,3.62,30.412,30.412,0,0,1-9.6,1.347q-11.454,0-17.6-4.63t-8.5-15.912H350.784Zm126.29,27.278V477.567h-10.1v87.222h10.1Zm0.5-106.249V443.554H466.465V458.54h11.114Zm116.689,77.035a36.371,36.371,0,0,1-5.809,11.618,28.544,28.544,0,0,1-9.261,7.914,25.688,25.688,0,0,1-12.377,2.946,28.1,28.1,0,0,1-13.639-3.115,26.827,26.827,0,0,1-9.43-8.5,36.713,36.713,0,0,1-5.388-12.544,56.82,56.82,0,0,1-1.347-15.407,42.919,42.919,0,0,1,2.273-14.565,31.025,31.025,0,0,1,6.315-10.692,26.963,26.963,0,0,1,9.429-6.651,30,30,0,0,1,11.787-2.273,27.193,27.193,0,0,1,12.629,2.862,26.616,26.616,0,0,1,9.261,7.83,35.95,35.95,0,0,1,5.641,11.786,53.8,53.8,0,0,1,1.937,14.734A48.105,48.105,0,0,1,594.268,535.575Zm2.021-42.685h-0.337a29.726,29.726,0,0,0-5.641-7.577,33.021,33.021,0,0,0-7.577-5.557,40.835,40.835,0,0,0-8.5-3.367,33.042,33.042,0,0,0-8.588-1.179q-10.608,0-18.017,3.536a33.551,33.551,0,0,0-12.208,9.682,39.5,39.5,0,0,0-6.988,14.565,71.36,71.36,0,0,0-2.189,18.017,64.58,64.58,0,0,0,2.357,17.511,43.4,43.4,0,0,0,7.157,14.734,35.442,35.442,0,0,0,12.124,10.1,37.083,37.083,0,0,0,17.259,3.789,40.239,40.239,0,0,0,17.765-4.125,31.292,31.292,0,0,0,13.387-12.208,99.76,99.76,0,0,1-.758,14.818,35.618,35.618,0,0,1-4.125,12.965,24.174,24.174,0,0,1-9.43,9.261q-6.231,3.536-16.5,3.536a55.473,55.473,0,0,1-8.756-.674,25.576,25.576,0,0,1-7.662-2.441,18.492,18.492,0,0,1-5.977-4.883,19.942,19.942,0,0,1-3.7-8H528.6a20.482,20.482,0,0,0,2.442,8.335,26.535,26.535,0,0,0,6.651,8.166,35.8,35.8,0,0,0,11.282,6.146,49.682,49.682,0,0,0,16.5,2.441q12.459,0,20.375-3.62a31.651,31.651,0,0,0,12.46-9.682,36.107,36.107,0,0,0,6.315-14.059,77.408,77.408,0,0,0,1.768-16.754v-78.8h-10.1V492.89Zm71.731,24.92q0-4.545.337-8.419a32.071,32.071,0,0,1,1.852-8.082,24.933,24.933,0,0,1,3.368-6.4,25.319,25.319,0,0,1,5.3-5.389,27.046,27.046,0,0,1,6.988-3.788,24.635,24.635,0,0,1,8.588-1.431q12.123,0,17.343,5.893t5.22,17.68v56.913h10.1V507.708a88.116,88.116,0,0,0-.59-10.356,21.761,21.761,0,0,0-3.788-9.682,25.6,25.6,0,0,0-11.619-9.682,39.779,39.779,0,0,0-14.986-2.778,28.856,28.856,0,0,0-15.576,4.041,64.15,64.15,0,0,0-12.545,10.44V477.567h-10.1v87.222h10.1V517.81Zm195.833-11.029a36.425,36.425,0,0,1,5.81-11.618,28.563,28.563,0,0,1,9.261-7.914A25.7,25.7,0,0,1,891.3,484.3a28.274,28.274,0,0,1,13.555,3.115,26.694,26.694,0,0,1,9.514,8.5,36.833,36.833,0,0,1,5.388,12.544,57.077,57.077,0,0,1,1.348,15.407,42.881,42.881,0,0,1-2.274,14.565,31.011,31.011,0,0,1-6.314,10.692,26.946,26.946,0,0,1-9.43,6.651,30.018,30.018,0,0,1-11.787,2.273,27.158,27.158,0,0,1-12.629-2.862,26.544,26.544,0,0,1-9.261-7.83,35.822,35.822,0,0,1-5.641-11.786,53.705,53.705,0,0,1-1.936-14.734A48.129,48.129,0,0,1,863.853,506.781Zm-2.02,42.685h0.336a27.313,27.313,0,0,0,5.641,7.661,34.137,34.137,0,0,0,7.578,5.473,40.554,40.554,0,0,0,8.5,3.367,33.019,33.019,0,0,0,8.588,1.179q10.608,0,18.017-3.536a33.537,33.537,0,0,0,12.208-9.682,39.468,39.468,0,0,0,6.988-14.565,71.439,71.439,0,0,0,2.189-18.017,64.669,64.669,0,0,0-2.357-17.511,43.443,43.443,0,0,0-7.157-14.734A35.439,35.439,0,0,0,910.244,479a37.1,37.1,0,0,0-17.26-3.789,40.226,40.226,0,0,0-17.765,4.125,31.268,31.268,0,0,0-13.386,12.208V443.554h-10.1V564.789h10.1V549.466ZM978.86,597.96a43.069,43.069,0,0,0,4.462.842,37.812,37.812,0,0,0,5.136.336,16.281,16.281,0,0,0,9.008-2.441,24.531,24.531,0,0,0,6.9-7.072,66.332,66.332,0,0,0,5.89-11.2q2.79-6.567,5.81-14.818l32.5-86.043h-10.94l-27.96,74.93-27.948-74.93H970.44l33.85,87.764a36.483,36.483,0,0,0-2.7,6.977,52.625,52.625,0,0,1-2.945,7.9,22.626,22.626,0,0,1-4.462,6.474,9.364,9.364,0,0,1-6.9,2.689,27.311,27.311,0,0,1-4.294-.336q-2.107-.34-4.125-0.674v9.6Z"/>
</svg>
